# Rhino

g Treble Geometry Light_wall
v 0 2.5490314960479736 0
v 0 0 0
v 2.0328652858734131 0 0
v 2.0328652858734131 2.5490314960479736 0
vn 0 0 1
vn 0 0 1
vn 0 0 1
vn 0 0 1
f 1//1 2//2 3//3
f 1//1 3//3 4//4
v 2.0328652858734131 0 0
v 2.0328652858734131 0 -1.8124769926071167
v 2.0328652858734131 2.0999999046325684 -1.8124769926071167
v 2.0328652858734131 2.5490314960479736 0
v 2.0328652858734131 2.5490314960479736 -4.5424590110778809
v 2.0328652858734131 2.0999999046325684 -3.012476921081543
v 2.0328652858734131 0 -4.5424590110778809
v 2.0328652858734131 0 -3.012476921081543
vn 1 0 0
vn 1 0 0
vn 1 0 0
vn 1 0 0
vn 1 0 0
vn 1 0 0
vn 1 0 0
vn 1 0 0
f 5//5 6//6 7//7
f 8//8 7//7 9//9
f 9//9 10//10 11//11
f 5//5 7//7 8//8
f 7//7 10//10 9//9
f 10//10 12//12 11//11
v 0.48594668507575989 1.8050017356872559 -4.5424590110778809
v 0.48594668507575989 0.74402976036071777 -4.5424590110778809
v 0 0 -4.5424590110778809
v 2.0328652858734131 0 -4.5424590110778809
v 2.0328652858734131 2.5490314960479736 -4.5424590110778809
v 1.5469186305999756 1.8050017356872559 -4.5424590110778809
v 0 2.5490314960479736 -4.5424590110778809
v 1.5469186305999756 0.74402976036071777 -4.5424590110778809
vn 0 0 -1
vn 0 0 -1
vn 0 0 -1
vn 0 0 -1
vn 0 0 -1
vn 0 0 -1
vn 0 0 -1
vn 0 0 -1
f 13//13 14//14 15//15
f 15//15 14//14 16//16
f 17//17 18//18 13//13
f 15//15 19//19 13//13
f 18//18 16//16 20//20
f 16//16 18//18 17//17
f 14//14 20//20 16//16
f 17//17 13//13 19//19
g Treble Geometry Floor
v 2.0328652858734131 0 0
v 0 0 0
v 2.0328652858734131 0 -1.8124769926071167
v 0 0 -4.5424590110778809
v 2.0328652858734131 0 -4.5424590110778809
v 2.0328652858734131 0 -3.012476921081543
vn 0 -1 0
vn 0 -1 0
vn 0 -1 0
vn 0 -1 0
vn 0 -1 0
vn 0 -1 0
f 21//21 22//22 23//23
f 22//22 24//24 23//23
f 25//25 26//26 24//24
f 24//24 26//26 23//23
g Treble Geometry Door
v 2.0328652858734131 2.0999999046325684 -1.8124769926071167
v 2.0328652858734131 0 -1.8124769926071167
v 2.0328652858734131 0 -3.012476921081543
v 2.0328652858734131 2.0999999046325684 -3.012476921081543
vn 1 0 0
vn 1 0 0
vn 1 0 0
vn 1 0 0
f 27//27 28//28 29//29
f 27//27 29//29 30//30
g Treble Geometry Ceiling
v 0 2.5490314960479736 -4.5424590110778809
v 0 2.5490314960479736 0
v 2.0328652858734131 2.5490314960479736 0
v 2.0328652858734131 2.5490314960479736 -4.5424590110778809
vn 0 1 0
vn 0 1 0
vn 0 1 0
vn 0 1 0
f 31//31 32//32 33//33
f 31//31 33//33 34//34
g Treble Geometry Acoustic
v 0.48594668507575989 1.8050017356872559 -4.5424590110778809
v 1.5469186305999756 1.8050017356872559 -4.5424590110778809
v 1.5469186305999756 1.8050017356872559 -4.3424587249755859
v 0.48594668507575989 1.8050017356872559 -4.3424587249755859
vn 0 -1 0
vn 0 -1 0
vn 0 -1 0
vn 0 -1 0
f 35//35 36//36 37//37
f 35//35 37//37 38//38
v 1.5469186305999756 1.8050017356872559 -4.3424587249755859
v 1.5469186305999756 0.74402976036071777 -4.3424587249755859
v 0.48594668507575989 0.74402976036071777 -4.3424587249755859
v 0.48594668507575989 1.8050017356872559 -4.3424587249755859
vn 0 0 -1
vn 0 0 -1
vn 0 0 -1
vn 0 0 -1
f 39//39 40//40 41//41
f 39//39 41//41 42//42
v 0.48594668507575989 0.74402976036071777 -4.5424590110778809
v 0.48594668507575989 1.8050017356872559 -4.5424590110778809
v 0.48594668507575989 1.8050017356872559 -4.3424587249755859
v 0.48594668507575989 0.74402976036071777 -4.3424587249755859
vn 1 0 0
vn 1 0 0
vn 1 0 0
vn 1 0 0
f 43//43 44//44 45//45
f 43//43 45//45 46//46
v 1.5469186305999756 0.74402976036071777 -4.5424590110778809
v 0.48594668507575989 0.74402976036071777 -4.5424590110778809
v 0.48594668507575989 0.74402976036071777 -4.3424587249755859
v 1.5469186305999756 0.74402976036071777 -4.3424587249755859
vn 0 1 0
vn 0 1 0
vn 0 1 0
vn 0 1 0
f 47//47 48//48 49//49
f 47//47 49//49 50//50
v 1.5469186305999756 1.8050017356872559 -4.5424590110778809
v 1.5469186305999756 0.74402976036071777 -4.5424590110778809
v 1.5469186305999756 0.74402976036071777 -4.3424587249755859
v 1.5469186305999756 1.8050017356872559 -4.3424587249755859
vn -1 0 0
vn -1 0 0
vn -1 0 0
vn -1 0 0
f 51//51 52//52 53//53
f 51//51 53//53 54//54
g Treble Geometry Window
v 0 0.67729133367538452 -0.90544521808624268
v 0 1.8717401027679443 -0.90544521808624268
v -0.19999998807907104 1.8717401027679443 -0.90544521808624268
v -0.19999998807907104 0.67729133367538452 -0.90544521808624268
vn 0 0 1
vn 0 0 1
vn 0 0 1
vn 0 0 1
f 55//55 56//56 57//57
f 55//55 57//57 58//58
v 0 1.8717401027679443 -0.90544521808624268
v 0 1.8717401027679443 -3.6370134353637695
v -0.19999998807907104 1.8717401027679443 -3.6370134353637695
v -0.19999998807907104 1.8717401027679443 -0.90544521808624268
vn 0 1 0
vn 0 1 0
vn 0 1 0
vn 0 1 0
f 59//59 60//60 61//61
f 59//59 61//61 62//62
v -0.19999998807907104 0.67729133367538452 -0.90544521808624268
v -0.19999998807907104 1.8717401027679443 -0.90544521808624268
v -0.19999998807907104 1.8717401027679443 -3.6370134353637695
v -0.19999998807907104 0.67729133367538452 -3.6370134353637695
vn -1 0 0
vn -1 0 0
vn -1 0 0
vn -1 0 0
f 63//63 64//64 65//65
f 63//63 65//65 66//66
v 0 0.67729133367538452 -3.6370134353637695
v 0 0.67729133367538452 -0.90544521808624268
v -0.19999998807907104 0.67729133367538452 -0.90544521808624268
v -0.19999998807907104 0.67729133367538452 -3.6370134353637695
vn 0 -1 0
vn 0 -1 0
vn 0 -1 0
vn 0 -1 0
f 67//67 68//68 69//69
f 67//67 69//69 70//70
v 0 1.8717401027679443 -3.6370134353637695
v 0 0.67729133367538452 -3.6370134353637695
v -0.19999998807907104 0.67729133367538452 -3.6370134353637695
v -0.19999998807907104 1.8717401027679443 -3.6370134353637695
vn 0 0 -1
vn 0 0 -1
vn 0 0 -1
vn 0 0 -1
f 71//71 72//72 73//73
f 71//71 73//73 74//74
g Treble Geometry Concrete_wall
v 0 0.67729133367538452 -0.90544521808624268
v 0 2.5490314960479736 0
v 0 1.8717401027679443 -0.90544521808624268
v 0 2.5490314960479736 -4.5424590110778809
v 0 1.8717401027679443 -3.6370134353637695
v 0 0.67729133367538452 -3.6370134353637695
v 0 0 0
v 0 0 -4.5424590110778809
vn -1 0 0
vn -1 0 0
vn -1 0 0
vn -1 0 0
vn -1 0 0
vn -1 0 0
vn -1 0 0
vn -1 0 0
f 75//75 76//76 77//77
f 76//76 78//78 79//79
f 75//75 80//80 81//81
f 76//76 75//75 81//81
f 80//80 79//79 78//78
f 78//78 82//82 80//80
f 76//76 79//79 77//77
f 80//80 82//82 81//81
g Treble Geometry Monitor
v 0.26643267273902893 0.77451574802398682 -0.19999998807907104
v 0.26643267273902893 1.7745157480239868 -0.19999998807907104
v 1.7664326429367065 1.7745157480239868 -0.19999998807907104
v 1.7664326429367065 0.77451574802398682 -0.19999998807907104
vn 0 0 -1
vn 0 0 -1
vn 0 0 -1
vn 0 0 -1
f 83//83 84//84 85//85
f 83//83 85//85 86//86
g Treble Geometry Chairs
v 0.92500001192092896 0.44999998807907104 -2.8318438529968262
v 0.92500001192092896 0.44999998807907104 -3.281843900680542
v 0.47499999403953552 0.44999998807907104 -3.281843900680542
v 0.47499999403953552 0.44999998807907104 -2.8318438529968262
vn 0 1 0
vn 0 1 0
vn 0 1 0
vn 0 1 0
f 87//87 88//88 89//89
f 87//87 89//89 90//90
v 0.92500001192092896 0.44999998807907104 -2.4962291717529297
v 0.47499999403953552 0.44999998807907104 -2.4962291717529297
v 0.47499999403953552 0.44999998807907104 -2.046229362487793
v 0.92500001192092896 0.44999998807907104 -2.046229362487793
vn 0 1 0
vn 0 1 0
vn 0 1 0
vn 0 1 0
f 91//91 92//92 93//93
f 91//91 93//93 94//94
v 0.47499999403953552 0.44999998807907104 -2.046229362487793
v 0.47499999403953552 0.44999998807907104 -2.4962291717529297
v 0.47499999403953552 0.94999998807907104 -2.4962291717529297
v 0.47499999403953552 0.94999998807907104 -2.046229362487793
vn 1 0 0
vn 1 0 0
vn 1 0 0
vn 1 0 0
f 95//95 96//96 97//97
f 95//95 97//97 98//98
v 0.92500001192092896 0.44999998807907104 -1.7106146812438965
v 0.47499999403953552 0.44999998807907104 -1.7106146812438965
v 0.47499999403953552 0.44999998807907104 -1.2606146335601807
v 0.92500001192092896 0.44999998807907104 -1.2606146335601807
vn 0 1 0
vn 0 1 0
vn 0 1 0
vn 0 1 0
f 99//99 100//100 101//101
f 99//99 101//101 102//102
v 0.47499999403953552 0.44999998807907104 -1.2606146335601807
v 0.47499999403953552 0.44999998807907104 -1.7106146812438965
v 0.47499999403953552 0.94999998807907104 -1.7106146812438965
v 0.47499999403953552 0.94999998807907104 -1.2606146335601807
vn 1 0 0
vn 1 0 0
vn 1 0 0
vn 1 0 0
f 103//103 104//104 105//105
f 103//103 105//105 106//106
v 1.1078653335571289 0.44999998807907104 -1.7106146812438965
v 1.1078653335571289 0.44999998807907104 -1.2606146335601807
v 1.5578653812408447 0.44999998807907104 -1.2606146335601807
v 1.5578653812408447 0.44999998807907104 -1.7106146812438965
vn 0 1 0
vn 0 1 0
vn 0 1 0
vn 0 1 0
f 107//107 108//108 109//109
f 107//107 109//109 110//110
v 1.1078653335571289 0.44999998807907104 -2.046229362487793
v 1.5578653812408447 0.44999998807907104 -2.046229362487793
v 1.5578653812408447 0.44999998807907104 -2.4962291717529297
v 1.1078653335571289 0.44999998807907104 -2.4962291717529297
vn 0 1 0
vn 0 1 0
vn 0 1 0
vn 0 1 0
f 111//111 112//112 113//113
f 111//111 113//113 114//114
v 1.5578653812408447 0.44999998807907104 -2.4962291717529297
v 1.5578653812408447 0.44999998807907104 -2.046229362487793
v 1.5578653812408447 0.94999998807907104 -2.046229362487793
v 1.5578653812408447 0.94999998807907104 -2.4962291717529297
vn -1 0 0
vn -1 0 0
vn -1 0 0
vn -1 0 0
f 115//115 116//116 117//117
f 115//115 117//117 118//118
v 1.1078653335571289 0.44999998807907104 -2.8318438529968262
v 1.5578653812408447 0.44999998807907104 -2.8318438529968262
v 1.5578653812408447 0.44999998807907104 -3.281843900680542
v 1.1078653335571289 0.44999998807907104 -3.281843900680542
vn 0 1 0
vn 0 1 0
vn 0 1 0
vn 0 1 0
f 119//119 120//120 121//121
f 119//119 121//121 122//122
v 1.5578653812408447 0.44999998807907104 -3.281843900680542
v 1.5578653812408447 0.44999998807907104 -2.8318438529968262
v 1.5578653812408447 0.94999998807907104 -2.8318438529968262
v 1.5578653812408447 0.94999998807907104 -3.281843900680542
vn -1 0 0
vn -1 0 0
vn -1 0 0
vn -1 0 0
f 123//123 124//124 125//125
f 123//123 125//125 126//126
v 0.47499999403953552 0.94999998807907104 -2.8318438529968262
v 0.47499999403953552 0.44999998807907104 -2.8318438529968262
v 0.47499999403953552 0.44999998807907104 -3.281843900680542
v 0.47499999403953552 0.94999998807907104 -3.281843900680542
vn 1 0 0
vn 1 0 0
vn 1 0 0
vn 1 0 0
f 127//127 128//128 129//129
f 127//127 129//129 130//130
v 1.5578653812408447 0.94999998807907104 -1.7106146812438965
v 1.5578653812408447 0.44999998807907104 -1.7106146812438965
v 1.5578653812408447 0.44999998807907104 -1.2606146335601807
v 1.5578653812408447 0.94999998807907104 -1.2606146335601807
vn -1 0 0
vn -1 0 0
vn -1 0 0
vn -1 0 0
f 131//131 132//132 133//133
f 131//131 133//133 134//134
g Treble Geometry Table
v 1.3328653573989868 0.75 -0.69999998807907104
v 1.3328653573989868 0.75 -3.8424584865570068
v 0.69999998807907104 0.75 -3.8424584865570068
v 0.69999998807907104 0.75 -0.69999998807907104
vn 0 1 0
vn 0 1 0
vn 0 1 0
vn 0 1 0
f 135//135 136//136 137//137
f 135//135 137//137 138//138
