# Rhino

g Treble Geometry Light_wall
v 0 2.6388163566589355 0
v 0 0 0
v 2.3167257308959961 0 0
v 2.3167257308959961 2.6388163566589355 0
vn 0 0 1
vn 0 0 1
vn 0 0 1
vn 0 0 1
f 1//1 2//2 3//3
f 1//1 3//3 4//4
v 2.3167257308959961 0 0
v 2.3167257308959961 0 -0.54434984922409058
v 2.3167257308959961 2.0999999046325684 -0.54434984922409058
v 2.3167257308959961 2.0999999046325684 -1.7443498373031616
v 2.3167257308959961 2.6388163566589355 -2.3247871398925781
v 2.3167257308959961 2.6388163566589355 0
v 2.3167257308959961 0 -2.3247871398925781
v 2.3167257308959961 0 -1.7443498373031616
vn 1 0 0
vn 1 0 0
vn 1 0 0
vn 1 0 0
vn 1 0 0
vn 1 0 0
vn 1 0 0
vn 1 0 0
f 5//5 6//6 7//7
f 8//8 9//9 10//10
f 11//11 9//9 8//8
f 8//8 12//12 11//11
f 5//5 7//7 10//10
f 8//8 10//10 7//7
v 0.26033559441566467 0.42138102650642395 -2.3247871398925781
v 0 0 -2.3247871398925781
v 0 2.6388163566589355 -2.3247871398925781
v 2.0563900470733643 0.42138102650642395 -2.3247871398925781
v 2.3167257308959961 2.6388163566589355 -2.3247871398925781
v 2.0563900470733643 2.2174355983734131 -2.3247871398925781
v 0.26033559441566467 2.2174355983734131 -2.3247871398925781
v 2.3167257308959961 0 -2.3247871398925781
vn 0 0 -1
vn 0 0 -1
vn 0 0 -1
vn 0 0 -1
vn 0 0 -1
vn 0 0 -1
vn 0 0 -1
vn 0 0 -1
f 13//13 14//14 15//15
f 14//14 13//13 16//16
f 17//17 18//18 15//15
f 18//18 17//17 16//16
f 13//13 15//15 19//19
f 14//14 16//16 20//20
f 18//18 19//19 15//15
f 17//17 20//20 16//16
g Treble Geometry Floor
v 2.3167257308959961 0 0
v 0 0 0
v 2.3167257308959961 0 -0.54434984922409058
v 2.3167257308959961 0 -1.7443498373031616
v 2.3167257308959961 0 -2.3247871398925781
v 0 0 -2.3247871398925781
vn 0 -1 0
vn 0 -1 0
vn 0 -1 0
vn 0 -1 0
vn 0 -1 0
vn 0 -1 0
f 21//21 22//22 23//23
f 24//24 23//23 22//22
f 25//25 24//24 26//26
f 24//24 22//22 26//26
g Treble Geometry Door
v 2.3167257308959961 2.0999999046325684 -0.54434984922409058
v 2.3167257308959961 0 -0.54434984922409058
v 2.3167257308959961 0 -1.7443498373031616
v 2.3167257308959961 2.0999999046325684 -1.7443498373031616
vn 1 0 0
vn 1 0 0
vn 1 0 0
vn 1 0 0
f 27//27 28//28 29//29
f 27//27 29//29 30//30
g Treble Geometry Ceiling
v 0 2.6388163566589355 -2.3247871398925781
v 0 2.6388163566589355 0
v 2.3167257308959961 2.6388163566589355 0
v 2.3167257308959961 2.6388163566589355 -2.3247871398925781
vn 0 1 0
vn 0 1 0
vn 0 1 0
vn 0 1 0
f 31//31 32//32 33//33
f 31//31 33//33 34//34
g Treble Geometry Acoustic
v 0.26033559441566467 2.2174355983734131 -2.3247871398925781
v 2.0563900470733643 2.2174355983734131 -2.3247871398925781
v 2.0563900470733643 2.2174355983734131 -2.1247870922088623
v 0.26033559441566467 2.2174355983734131 -2.1247870922088623
vn 0 -1 0
vn 0 -1 0
vn 0 -1 0
vn 0 -1 0
f 35//35 36//36 37//37
f 35//35 37//37 38//38
v 2.0563900470733643 2.2174355983734131 -2.1247870922088623
v 2.0563900470733643 0.42138102650642395 -2.1247870922088623
v 0.26033559441566467 0.42138102650642395 -2.1247870922088623
v 0.26033559441566467 2.2174355983734131 -2.1247870922088623
vn 0 0 -1
vn 0 0 -1
vn 0 0 -1
vn 0 0 -1
f 39//39 40//40 41//41
f 39//39 41//41 42//42
v 0.26033559441566467 0.42138102650642395 -2.3247871398925781
v 0.26033559441566467 2.2174355983734131 -2.3247871398925781
v 0.26033559441566467 2.2174355983734131 -2.1247870922088623
v 0.26033559441566467 0.42138102650642395 -2.1247870922088623
vn 1 0 0
vn 1 0 0
vn 1 0 0
vn 1 0 0
f 43//43 44//44 45//45
f 43//43 45//45 46//46
v 2.0563900470733643 0.42138102650642395 -2.3247871398925781
v 0.26033559441566467 0.42138102650642395 -2.3247871398925781
v 0.26033559441566467 0.42138102650642395 -2.1247870922088623
v 2.0563900470733643 0.42138102650642395 -2.1247870922088623
vn 0 1 0
vn 0 1 0
vn 0 1 0
vn 0 1 0
f 47//47 48//48 49//49
f 47//47 49//49 50//50
v 2.0563900470733643 2.2174355983734131 -2.3247871398925781
v 2.0563900470733643 0.42138102650642395 -2.3247871398925781
v 2.0563900470733643 0.42138102650642395 -2.1247870922088623
v 2.0563900470733643 2.2174355983734131 -2.1247870922088623
vn -1 0 0
vn -1 0 0
vn -1 0 0
vn -1 0 0
f 51//51 52//52 53//53
f 51//51 53//53 54//54
g Treble Geometry Window
v -0.19999998807907104 0.68756753206253052 -0.65162593126296997
v -0.19999998807907104 1.9512488842010498 -0.65162593126296997
v -0.19999998807907104 1.9512488842010498 -1.6731612682342529
v -0.19999998807907104 0.68756753206253052 -1.6731612682342529
vn -1 0 0
vn -1 0 0
vn -1 0 0
vn -1 0 0
f 55//55 56//56 57//57
f 55//55 57//57 58//58
v 0 0.68756753206253052 -0.65162593126296997
v 0 1.9512488842010498 -0.65162593126296997
v -0.19999998807907104 1.9512488842010498 -0.65162593126296997
v -0.19999998807907104 0.68756753206253052 -0.65162593126296997
vn 0 0 1
vn 0 0 1
vn 0 0 1
vn 0 0 1
f 59//59 60//60 61//61
f 59//59 61//61 62//62
v 0 1.9512488842010498 -0.65162593126296997
v 0 1.9512488842010498 -1.6731612682342529
v -0.19999998807907104 1.9512488842010498 -1.6731612682342529
v -0.19999998807907104 1.9512488842010498 -0.65162593126296997
vn 0 1 0
vn 0 1 0
vn 0 1 0
vn 0 1 0
f 63//63 64//64 65//65
f 63//63 65//65 66//66
v 0 1.9512488842010498 -1.6731612682342529
v 0 0.68756753206253052 -1.6731612682342529
v -0.19999998807907104 0.68756753206253052 -1.6731612682342529
v -0.19999998807907104 1.9512488842010498 -1.6731612682342529
vn 0 0 -1
vn 0 0 -1
vn 0 0 -1
vn 0 0 -1
f 67//67 68//68 69//69
f 67//67 69//69 70//70
v 0 0.68756753206253052 -1.6731612682342529
v 0 0.68756753206253052 -0.65162593126296997
v -0.19999998807907104 0.68756753206253052 -0.65162593126296997
v -0.19999998807907104 0.68756753206253052 -1.6731612682342529
vn 0 -1 0
vn 0 -1 0
vn 0 -1 0
vn 0 -1 0
f 71//71 72//72 73//73
f 71//71 73//73 74//74
g Treble Geometry Concrete_wall
v 0 0.68756753206253052 -0.65162593126296997
v 0 2.6388163566589355 0
v 0 1.9512488842010498 -0.65162593126296997
v 0 2.6388163566589355 -2.3247871398925781
v 0 1.9512488842010498 -1.6731612682342529
v 0 0 -2.3247871398925781
v 0 0 0
v 0 0.68756753206253052 -1.6731612682342529
vn -1 0 0
vn -1 0 0
vn -1 0 0
vn -1 0 0
vn -1 0 0
vn -1 0 0
vn -1 0 0
vn -1 0 0
f 75//75 76//76 77//77
f 76//76 78//78 79//79
f 80//80 81//81 75//75
f 76//76 75//75 81//81
f 82//82 79//79 78//78
f 78//78 80//80 82//82
f 76//76 79//79 77//77
f 80//80 75//75 82//82
g Treble Geometry Monitor
v 0.40836280584335327 0.81940823793411255 -0.19999998807907104
v 0.40836280584335327 1.8194082975387573 -0.19999998807907104
v 1.908362865447998 1.8194082975387573 -0.19999998807907104
v 1.908362865447998 0.81940823793411255 -0.19999998807907104
vn 0 0 -1
vn 0 0 -1
vn 0 0 -1
vn 0 0 -1
f 83//83 84//84 85//85
f 83//83 85//85 86//86
g Treble Geometry Chairs
v 1.3833627700805664 0.44999998807907104 -0.92500001192092896
v 0.93336278200149536 0.44999998807907104 -0.92500001192092896
v 0.93336278200149536 0.44999998807907104 -0.47499999403953552
v 1.3833627700805664 0.44999998807907104 -0.47499999403953552
vn 0 1 0
vn 0 1 0
vn 0 1 0
vn 0 1 0
f 87//87 88//88 89//89
f 87//87 89//89 90//90
v 1.3833627700805664 0.94999998807907104 -0.47499999403953552
v 1.3833627700805664 0.44999998807907104 -0.47499999403953552
v 0.93336278200149536 0.44999998807907104 -0.47499999403953552
v 0.93336278200149536 0.94999998807907104 -0.47499999403953552
vn 0 0 -1
vn 0 0 -1
vn 0 0 -1
vn 0 0 -1
f 91//91 92//92 93//93
f 91//91 93//93 94//94
v 0.93336278200149536 0.44999998807907104 -1.3997871875762939
v 1.3833627700805664 0.44999998807907104 -1.3997871875762939
v 1.3833627700805664 0.44999998807907104 -1.8497872352600098
v 0.93336278200149536 0.44999998807907104 -1.8497872352600098
vn 0 1 0
vn 0 1 0
vn 0 1 0
vn 0 1 0
f 95//95 96//96 97//97
f 95//95 97//97 98//98
v 0.93336278200149536 0.94999998807907104 -1.8497872352600098
v 0.93336278200149536 0.44999998807907104 -1.8497872352600098
v 1.3833627700805664 0.44999998807907104 -1.8497872352600098
v 1.3833627700805664 0.94999998807907104 -1.8497872352600098
vn 0 0 1
vn 0 0 1
vn 0 0 1
vn 0 0 1
f 99//99 100//100 101//101
f 99//99 101//101 102//102
v 1.3917256593704224 0.44999998807907104 -1.387393593788147
v 1.3917256593704224 0.44999998807907104 -0.93739354610443115
v 1.8417257070541382 0.44999998807907104 -0.93739354610443115
v 1.8417257070541382 0.44999998807907104 -1.387393593788147
vn 0 1 0
vn 0 1 0
vn 0 1 0
vn 0 1 0
f 103//103 104//104 105//105
f 103//103 105//105 106//106
v 1.8417257070541382 0.94999998807907104 -1.387393593788147
v 1.8417257070541382 0.44999998807907104 -1.387393593788147
v 1.8417257070541382 0.44999998807907104 -0.93739354610443115
v 1.8417257070541382 0.94999998807907104 -0.93739354610443115
vn -1 0 0
vn -1 0 0
vn -1 0 0
vn -1 0 0
f 107//107 108//108 109//109
f 107//107 109//109 110//110
v 0.92500001192092896 0.44999998807907104 -0.93739354610443115
v 0.92500001192092896 0.44999998807907104 -1.387393593788147
v 0.47499999403953552 0.44999998807907104 -1.387393593788147
v 0.47499999403953552 0.44999998807907104 -0.93739354610443115
vn 0 1 0
vn 0 1 0
vn 0 1 0
vn 0 1 0
f 111//111 112//112 113//113
f 111//111 113//113 114//114
v 0.47499999403953552 0.94999998807907104 -0.93739354610443115
v 0.47499999403953552 0.44999998807907104 -0.93739354610443115
v 0.47499999403953552 0.44999998807907104 -1.387393593788147
v 0.47499999403953552 0.94999998807907104 -1.387393593788147
vn 1 0 0
vn 1 0 0
vn 1 0 0
vn 1 0 0
f 115//115 116//116 117//117
f 115//115 117//117 118//118
g Treble Geometry Table
v 0.69999998807907104 0.75 -1.6247872114181519
v 0.69999998807907104 0.75 -0.69999998807907104
v 1.6167255640029907 0.75 -0.69999998807907104
v 1.6167255640029907 0.75 -1.6247872114181519
vn 0 1 0
vn 0 1 0
vn 0 1 0
vn 0 1 0
f 119//119 120//120 121//121
f 119//119 121//121 122//122
